<svg width="25" height="25" viewBox="0 0 25 25" fill="none" xmlns="http://www.w3.org/2000/svg">
    <path d="M16.75 22.635C17.7165 22.635 18.5 21.8515 18.5 20.885C18.5 19.9185 17.7165 19.135 16.75 19.135C15.7835 19.135 15 19.9185 15 20.885C15 21.8515 15.7835 22.635 16.75 22.635Z" fill="#1A8C03"/>
    <path d="M8.75 22.635C9.7165 22.635 10.5 21.8515 10.5 20.885C10.5 19.9185 9.7165 19.135 8.75 19.135C7.7835 19.135 7 19.9185 7 20.885C7 21.8515 7.7835 22.635 8.75 22.635Z" fill="#1A8C03"/>
    <path d="M5.34 4.07501L5.14 6.52501C5.1 6.99501 5.47 7.38501 5.94 7.38501H21.25C21.67 7.38501 22.02 7.06501 22.05 6.64501C22.18 4.87501 20.83 3.43501 19.06 3.43501H6.77C6.67 2.99501 6.47 2.57501 6.16 2.22501C5.66 1.69501 4.96 1.38501 4.24 1.38501H2.5C2.09 1.38501 1.75 1.72501 1.75 2.13501C1.75 2.54501 2.09 2.88501 2.5 2.88501H4.24C4.55 2.88501 4.84 3.01501 5.05 3.23501C5.26 3.46501 5.36 3.76501 5.34 4.07501Z" fill="#1A8C03"/>
    <path d="M21.0101 8.88501H5.67005C5.25005 8.88501 4.91005 9.20501 4.87005 9.61501L4.51005 13.965C4.37005 15.675 5.71005 17.135 7.42005 17.135H18.5401C20.0401 17.135 21.3601 15.905 21.4701 14.405L21.8001 9.73501C21.8401 9.27501 21.4801 8.88501 21.0101 8.88501Z" fill="#1A8C03"/>
</svg>
