<svg width="12" height="13" viewBox="0 0 12 13" fill="none" xmlns="http://www.w3.org/2000/svg">
    <path d="M0 5.11873C0 5.9695 0.226586 6.81128 0.679758 7.64409C1.13293 8.47686 1.77644 9.28768 2.61028 10.0765C3.44411 10.8654 4.42901 11.6193 5.56496 12.3382C5.62941 12.3782 5.70293 12.4151 5.78551 12.4491C5.86809 12.483 5.93959 12.5 6.00001 12.5C6.06446 12.5 6.13798 12.483 6.22055 12.4491C6.30313 12.4151 6.37665 12.3782 6.44112 12.3382C7.57708 11.6193 8.56096 10.8654 9.39279 10.0765C10.2246 9.28768 10.8671 8.47686 11.3203 7.64409C11.7734 6.81128 12 5.9695 12 5.11873C12 4.58751 11.9144 4.10121 11.7432 3.65986C11.572 3.2185 11.3324 2.83606 11.0242 2.51252C10.716 2.189 10.3535 1.93936 9.93659 1.76362C9.51965 1.58787 9.06546 1.5 8.57402 1.5C8.01411 1.5 7.51361 1.62182 7.07254 1.86547C6.63143 2.10911 6.27392 2.43264 6.00001 2.83606C5.73012 2.43264 5.37362 2.10911 4.93052 1.86547C4.48742 1.62182 3.98591 1.5 3.42599 1.5C2.93858 1.5 2.48641 1.58787 2.06949 1.76362C1.65257 1.93936 1.28902 2.189 0.978853 2.51252C0.668682 2.83606 0.427997 3.2185 0.256798 3.65986C0.0855993 4.10121 0 4.58751 0 5.11873ZM0.972814 5.11873C0.972814 4.58751 1.07855 4.12318 1.29003 3.72576C1.50151 3.32834 1.79154 3.01879 2.16012 2.79711C2.52871 2.57544 2.94663 2.4646 3.4139 2.4646C3.79256 2.4646 4.12085 2.5315 4.3988 2.66531C4.67674 2.79911 4.91239 2.96587 5.10575 3.16558C5.2991 3.36529 5.46023 3.565 5.58913 3.7647C5.67372 3.88453 5.74522 3.96541 5.80363 4.00735C5.86204 4.04929 5.9275 4.07026 6.00001 4.07026C6.07252 4.07026 6.13698 4.04829 6.19338 4.00435C6.24977 3.96042 6.32227 3.88054 6.41087 3.7647C6.54786 3.56899 6.71403 3.37028 6.90938 3.16857C7.10474 2.96687 7.33837 2.79911 7.61028 2.66531C7.88219 2.5315 8.20748 2.4646 8.58615 2.4646C9.05341 2.4646 9.47132 2.57544 9.83988 2.79711C10.2085 3.01879 10.4985 3.32834 10.71 3.72576C10.9215 4.12318 11.0272 4.58751 11.0272 5.11873C11.0272 5.67393 10.8923 6.23611 10.6224 6.80528C10.3525 7.37447 9.98693 7.93266 9.52569 8.47987C9.06445 9.02704 8.54077 9.54927 7.95467 10.0466C7.36856 10.5439 6.75931 11.0002 6.1269 11.4156C6.05842 11.4635 6.01612 11.4875 6.00001 11.4875C5.9839 11.4875 5.94361 11.4635 5.87916 11.4156C5.24674 11.0002 4.63747 10.5439 4.05136 10.0466C3.46526 9.54927 2.94059 9.02704 2.47735 8.47987C2.0141 7.93266 1.64754 7.37447 1.37764 6.80528C1.10776 6.23611 0.972814 5.67393 0.972814 5.11873Z" fill="white"/>
</svg>
