<svg width="24" height="25" viewBox="0 0 24 25" fill="none" xmlns="http://www.w3.org/2000/svg">
    <path d="M20.83 8.14671L14.28 2.90671C13 1.88671 11 1.87671 9.72996 2.89671L3.17996 8.14671C2.23996 8.89671 1.66996 10.3967 1.86996 11.5767L3.12996 19.1167C3.41996 20.8067 4.98996 22.1367 6.69996 22.1367H17.3C18.99 22.1367 20.59 20.7767 20.88 19.1067L22.14 11.5667C22.32 10.3967 21.75 8.89671 20.83 8.14671ZM12.75 18.1367C12.75 18.5467 12.41 18.8867 12 18.8867C11.59 18.8867 11.25 18.5467 11.25 18.1367V15.1367C11.25 14.7267 11.59 14.3867 12 14.3867C12.41 14.3867 12.75 14.7267 12.75 15.1367V18.1367Z" fill="#7E7E84"/>
</svg>
