<svg width="21" height="21" viewBox="0 0 21 21" fill="none" xmlns="http://www.w3.org/2000/svg">
    <path d="M14.2916 19.25C15.097 19.25 15.7499 18.5971 15.7499 17.7917C15.7499 16.9863 15.097 16.3333 14.2916 16.3333C13.4862 16.3333 12.8333 16.9863 12.8333 17.7917C12.8333 18.5971 13.4862 19.25 14.2916 19.25Z" fill="white"/>
    <path d="M7.62508 19.25C8.4305 19.25 9.08341 18.5971 9.08341 17.7917C9.08341 16.9863 8.4305 16.3333 7.62508 16.3333C6.81967 16.3333 6.16675 16.9863 6.16675 17.7917C6.16675 18.5971 6.81967 19.25 7.62508 19.25Z" fill="white"/>
    <path d="M4.78342 3.78332L4.61675 5.82499C4.58341 6.21666 4.89175 6.54166 5.28341 6.54166H18.0417C18.3917 6.54166 18.6834 6.27499 18.7084 5.92499C18.8167 4.44999 17.6917 3.24999 16.2167 3.24999H5.97508C5.89175 2.88332 5.72508 2.53332 5.46675 2.24166C5.05008 1.79999 4.46675 1.54166 3.86675 1.54166H2.41675C2.07508 1.54166 1.79175 1.82499 1.79175 2.16666C1.79175 2.50832 2.07508 2.79166 2.41675 2.79166H3.86675C4.12508 2.79166 4.36675 2.89999 4.54175 3.08332C4.71675 3.27499 4.80008 3.52499 4.78342 3.78332Z" fill="white"/>
    <path d="M17.8416 7.79166H5.0583C4.7083 7.79166 4.42496 8.05832 4.39163 8.39999L4.09163 12.025C3.97496 13.45 5.09163 14.6667 6.51663 14.6667H15.7833C17.0333 14.6667 18.1333 13.6417 18.225 12.3917L18.5 8.49999C18.5333 8.11666 18.2333 7.79166 17.8416 7.79166Z" fill="white"/>
</svg>
