<svg width="21" height="21" viewBox="0 0 21 21" fill="none" xmlns="http://www.w3.org/2000/svg">
    <path d="M10.9376 2.16666C6.34591 2.16666 2.60425 5.90832 2.60425 10.5C2.60425 15.0917 6.34591 18.8333 10.9376 18.8333C15.5292 18.8333 19.2709 15.0917 19.2709 10.5C19.2709 5.90832 15.5292 2.16666 10.9376 2.16666ZM14.9209 8.58332L10.1959 13.3083C10.0792 13.425 9.92092 13.4917 9.75425 13.4917C9.58758 13.4917 9.42925 13.425 9.31258 13.3083L6.95425 10.95C6.71258 10.7083 6.71258 10.3083 6.95425 10.0667C7.19591 9.82499 7.59591 9.82499 7.83758 10.0667L9.75425 11.9833L14.0376 7.69999C14.2792 7.45832 14.6792 7.45832 14.9209 7.69999C15.1626 7.94166 15.1626 8.33332 14.9209 8.58332Z" fill="white"/>
</svg>
